# xmcd CD database file
#
# Track frame offsets:
#	150
#	20848
#	41788
#	63099
#	81615
#	103363
#	132519
#	164658
#	180311
#
# Disc length: 2649 seconds
#
# Revision: 0
# Processed by: cddbd v1.5.2PL0 Copyright (c) Steve Scherf et al.
# Submitted via: CDex 1.70beta2
#
DISCID=830a5709
DTITLE=Darryl Way's Wolf - Canis Lupis
DYEAR=1973
DGENRE=Jazz
TTITLE0=The Void
TTITLE1=Isolation Waltz
TTITLE2=Go Down
TTITLE3=Wolf
TTITLE4=Cadenza
TTITLE5=Chanson Sans Paroles
TTITLE6=McDonald's Lament
TTITLE7=Spring Fever
TTITLE8=Wolf (single version)
EXTD=YEAR: 1973
EXTT0=
EXTT1=
EXTT2=
EXTT3=
EXTT4=
EXTT5=
EXTT6=
EXTT7=
EXTT8=
PLAYORDER=
